<svg width="25" height="15" viewBox="0 0 25 15" fill="none" xmlns="http://www.w3.org/2000/svg">
<path d="M13.7149 6.66701L13.715 6.66695L13.7087 6.66093C13.3951 6.3595 13.1587 6.17855 12.9759 6.0704C12.7944 5.96297 12.6374 5.91056 12.492 5.90869C12.235 5.90539 11.8877 6.06029 11.2931 6.65899L11.2911 6.66106L11.29 6.6621L4.01864 13.8991C3.2137 14.7003 1.90962 14.7003 1.10468 13.8991C0.298439 13.0967 0.298439 11.7947 1.10468 10.9923L11.043 1.10085C11.848 0.299716 13.152 0.299716 13.957 1.10085L14.3097 0.746463L13.957 1.10085L23.8953 10.9923C24.7016 11.7947 24.7016 13.0967 23.8953 13.8991C23.0904 14.7003 21.7863 14.7003 20.9814 13.8991L13.7149 6.66701Z" stroke="#A0A0A0"/>
</svg>
