<svg width="32" height="31" viewBox="0 0 32 31" fill="none" xmlns="http://www.w3.org/2000/svg">
<path d="M15.1215 11.708L15.1215 11.708L15.1277 11.7141C15.4413 12.0155 15.6777 12.1964 15.8605 12.3046C16.0421 12.412 16.199 12.4644 16.3445 12.4663C16.6014 12.4696 16.9488 12.3147 17.5433 11.716L17.5454 11.7139L17.5464 11.7129L24.8178 4.47585C25.6227 3.67472 26.9268 3.67472 27.7317 4.47585C28.538 5.27829 28.538 6.58028 27.7317 7.38272L17.7934 17.2741C16.9885 18.0753 15.6844 18.0753 14.8795 17.2741L14.5267 17.6285L14.8795 17.2741L4.94112 7.38272C4.13487 6.58028 4.13487 5.27828 4.94111 4.47585C5.74605 3.67471 7.05013 3.67471 7.85507 4.47585L15.1215 11.708Z" stroke="white"/>
<path d="M1 26.25C10.9844 26.25 20.9688 26.25 31 26.25C31 27.4923 31 28.7347 31 29.977C21.0156 29.977 10.9844 30.0288 1 29.977C1 28.7347 1 27.4923 1 26.25Z" stroke="white"/>
</svg>
