<svg width="30" height="30" viewBox="0 0 30 30" fill="none" xmlns="http://www.w3.org/2000/svg">
<path fill-rule="evenodd" clip-rule="evenodd" d="M10.9091 1.36364H1.36364V6.81818H10.9091V1.36364ZM0 0V8.18182H12.2727V0H0Z" fill="#A0A0A0"/>
<path fill-rule="evenodd" clip-rule="evenodd" d="M10.9091 12.2727H1.36364V17.7273H10.9091V12.2727ZM0 10.9091V19.0909H12.2727V10.9091H0Z" fill="#A0A0A0"/>
<path fill-rule="evenodd" clip-rule="evenodd" d="M10.9091 23.1818H1.36364V28.6364H10.9091V23.1818ZM0 21.8182V30H12.2727V21.8182H0Z" fill="#A0A0A0"/>
<path fill-rule="evenodd" clip-rule="evenodd" d="M29.9999 1.36364L14.3181 1.36364V0L29.9999 0V1.36364Z" fill="#A0A0A0"/>
<path fill-rule="evenodd" clip-rule="evenodd" d="M29.9999 12.2727L14.3181 12.2727V10.9091L29.9999 10.9091V12.2727Z" fill="#A0A0A0"/>
<path fill-rule="evenodd" clip-rule="evenodd" d="M29.9999 23.1818L14.3181 23.1818V21.8182L29.9999 21.8182V23.1818Z" fill="#A0A0A0"/>
<path fill-rule="evenodd" clip-rule="evenodd" d="M29.9999 4.77272L14.3181 4.77272V3.40909L29.9999 3.40909V4.77272Z" fill="#A0A0A0"/>
<path fill-rule="evenodd" clip-rule="evenodd" d="M29.9999 15.6818L14.3181 15.6818V14.3182L29.9999 14.3182V15.6818Z" fill="#A0A0A0"/>
<path fill-rule="evenodd" clip-rule="evenodd" d="M29.9999 26.5909L14.3181 26.5909V25.2273L29.9999 25.2273V26.5909Z" fill="#A0A0A0"/>
</svg>
