<svg width="195" height="65" viewBox="0 0 195 65" fill="none" xmlns="http://www.w3.org/2000/svg">
<path d="M0.890137 50.7737H5.06961C12.0914 50.7737 12.3779 56.5367 12.3779 57.5281C12.3779 58.5195 12.0914 64.2825 5.06961 64.2825H0.890137V50.7737ZM2.14894 63.1364H4.74488C8.33219 63.1364 11.1172 61.4 11.1172 57.5262C11.1172 53.6524 8.33219 51.916 4.74488 51.916H2.14894V63.1364Z" fill="white"/>
<path d="M21.3042 50.4299C25.4244 50.4299 28.2878 53.4059 28.2878 57.5281C28.2878 61.6503 25.4263 64.6263 21.3042 64.6263C17.182 64.6263 14.3206 61.6503 14.3206 57.5281C14.3225 53.4059 17.1839 50.4299 21.3042 50.4299ZM21.3042 63.4802C24.8342 63.4802 27.0271 60.8862 27.0271 57.5281C27.0271 54.17 24.8323 51.576 21.3042 51.576C17.7742 51.576 15.5794 54.17 15.5794 57.5281C15.5813 60.8862 17.7742 63.4802 21.3042 63.4802Z" fill="white"/>
<path d="M47.1948 62.1641C45.9169 63.9196 44.1614 64.6244 42.1767 64.6244C38.0546 64.6244 35.1931 61.6484 35.1931 57.5262C35.1931 53.4059 38.0546 50.428 42.1767 50.428C44.0086 50.428 45.6494 51.0392 46.8318 52.5464L45.8022 53.4059C44.9637 52.1471 43.531 51.5741 42.1767 51.5741C38.6467 51.5741 36.4519 54.1681 36.4519 57.5262C36.4519 60.8843 38.6467 63.4783 42.1767 63.4783C43.531 63.4783 45.2101 62.8289 46.1652 61.379L47.1948 62.1641Z" fill="white"/>
<path d="M55.6091 50.4299C59.7294 50.4299 62.5927 53.4059 62.5927 57.5281C62.5927 61.6503 59.7313 64.6263 55.6091 64.6263C51.4869 64.6263 48.6255 61.6503 48.6255 57.5281C48.6255 53.4059 51.4869 50.4299 55.6091 50.4299ZM55.6091 63.4802C59.1391 63.4802 61.332 60.8862 61.332 57.5281C61.332 54.17 59.1372 51.576 55.6091 51.576C52.081 51.576 49.8843 54.17 49.8843 57.5281C49.8843 60.8862 52.0791 63.4802 55.6091 63.4802Z" fill="white"/>
<path d="M65.4141 50.7737H67.0358L75.2591 62.6034H75.2973V50.7737H76.5561V64.2825H74.9344L66.7111 52.4528H66.6729V64.2825H65.4141V50.7737Z" fill="white"/>
<path d="M80.2579 50.7737H81.5167V56.7258H89.0715V50.7737H90.3303V64.2825H89.0715V57.8719H81.5167V64.2825H80.2579V50.7737Z" fill="white"/>
<path d="M94.0323 50.7737H102.294V51.9179H95.2912V56.7258H101.855V57.87H95.2912V63.1364H102.599V64.2806H94.0323V50.7737Z" fill="white"/>
<path d="M116.469 62.1641C115.191 63.9196 113.436 64.6244 111.451 64.6244C107.331 64.6244 104.468 61.6484 104.468 57.5262C104.468 53.4059 107.329 50.428 111.451 50.428C113.283 50.428 114.924 51.0392 116.106 52.5464L115.077 53.4059C114.236 52.1471 112.805 51.5741 111.451 51.5741C107.921 51.5741 105.728 54.1681 105.728 57.5262C105.728 60.8843 107.923 63.4783 111.451 63.4783C112.805 63.4783 114.485 62.8289 115.44 61.379L116.469 62.1641Z" fill="white"/>
<path d="M118.779 50.7737H120.037V64.2825H118.779V50.7737Z" fill="white"/>
<path d="M123.606 50.7737H125.495L130.417 62.1068L135.34 50.7737H137.134V64.2825H135.875V52.3763H135.837L130.683 64.2825H130.129L124.901 52.3763H124.863V64.2825H123.604V50.7737H123.606Z" fill="white"/>
<path d="M140.7 50.7737H148.961V51.9179H141.959V56.7258H148.522V57.87H141.959V63.1364H149.267V64.2806H140.7V50.7737Z" fill="white"/>
<path d="M152.014 50.7737H153.636L161.859 62.6034H161.897V50.7737H163.156V64.2825H161.534L153.311 52.4528H153.273V64.2825H152.014V50.7737Z" fill="white"/>
<path d="M169.851 51.9179H165.234V50.7737H175.729V51.9179H171.112V64.2806H169.853V51.9179H169.851Z" fill="white"/>
<path d="M183.914 50.4299C188.036 50.4299 190.898 53.4059 190.898 57.5281C190.898 61.6503 188.036 64.6263 183.914 64.6263C179.794 64.6263 176.93 61.6503 176.93 57.5281C176.93 53.4059 179.792 50.4299 183.914 50.4299ZM183.914 63.4802C187.444 63.4802 189.639 60.8862 189.639 57.5281C189.639 54.17 187.444 51.576 183.914 51.576C180.384 51.576 178.191 54.17 178.191 57.5281C178.189 60.8862 180.384 63.4802 183.914 63.4802Z" fill="white"/>
<path d="M123.142 37.494L122.741 38.4261L126.378 39.987L126.778 39.055L123.142 37.494Z" fill="white"/>
<path d="M154.223 22.5147L150.567 24.0305L150.956 24.9675L154.612 23.4516L154.223 22.5147Z" fill="white"/>
<path d="M141.587 21.8728L141.546 25.8303L142.56 25.8409L142.601 21.8835L141.587 21.8728Z" fill="white"/>
<path d="M141.815 23.3607L148.329 23.3588L148.467 23.6969L148.469 24.3712L141.817 24.375L141.815 23.3607Z" fill="white"/>
<path d="M181.429 39.8131C176.835 39.8131 172.94 38.3461 170.462 35.6795L171.301 34.9001C173.526 37.2936 177.217 38.667 181.427 38.667C188.301 38.667 193.119 34.4512 193.192 28.3959C193.192 28.3501 193.165 26.6176 193.088 26.4246H194.235C194.336 26.9041 194.338 28.3845 194.336 28.4475C194.24 35.1503 188.959 39.8131 181.429 39.8131ZM182.787 35.2115L182.624 34.0768C185.339 33.691 188.076 31.9107 188.076 28.8066C188.076 25.8248 185.551 24.8698 181.432 23.5575C176.594 22.0179 170.573 20.1 170.573 11.8538C170.573 9.40304 171.691 6.81284 173.561 4.92367C175.159 3.30957 178.097 1.38794 183.037 1.34973C183.087 1.34973 184.655 1.34973 185.692 1.56749V2.7136C184.791 2.53595 183.098 2.49393 183.054 2.49393C178.5 2.5264 175.824 4.26657 174.376 5.72786C172.713 7.40691 171.721 9.6953 171.721 11.8519C171.721 19.2596 176.837 20.8889 181.782 22.4629C185.61 23.6816 189.224 24.8316 189.224 28.8028C189.224 32.5792 185.887 34.7702 182.787 35.2115ZM171.14 34.18L170.373 33.328L173.448 30.5544L174.216 31.4064L171.14 34.18ZM187.039 19.7829C186.653 19.6607 183.541 18.7686 183.165 18.654C179.32 17.4793 175.689 16.3695 175.689 11.8557C175.689 9.63035 177.266 5.86539 183.182 5.86539C185.776 5.86539 188.17 6.93891 189.595 8.70201L191.268 7.22926L192.026 8.08884L189.383 10.4173L189.022 9.85957C187.881 8.10221 185.644 7.0115 183.182 7.0115C178.497 7.0115 176.835 9.6208 176.835 11.8557C176.835 15.5213 179.631 16.3752 183.499 17.5576C183.879 17.6741 186.993 18.5662 187.383 18.6884L187.039 19.7829Z" fill="white"/>
<path d="M181.471 36.3003C180.603 36.3003 179.897 35.5955 179.897 34.7263C179.897 33.8572 180.602 33.1523 181.471 33.1523C182.34 33.1523 183.045 33.8572 183.045 34.7263C183.045 35.5955 182.34 36.3003 181.471 36.3003ZM181.471 34.1724C181.165 34.1724 180.917 34.4207 180.917 34.7263C180.917 35.032 181.165 35.2803 181.471 35.2803C181.776 35.2803 182.025 35.032 182.025 34.7263C182.025 34.4207 181.776 34.1724 181.471 34.1724Z" fill="white"/>
<path d="M193.362 26.8144C192.494 26.8144 191.788 26.1095 191.788 25.2404C191.788 24.3712 192.492 23.6664 193.362 23.6664C194.231 23.6664 194.936 24.3712 194.936 25.2404C194.936 26.1095 194.229 26.8144 193.362 26.8144ZM193.362 24.6883C193.056 24.6883 192.808 24.9367 192.808 25.2423C192.808 25.5479 193.056 25.7962 193.362 25.7962C193.667 25.7962 193.916 25.5479 193.916 25.2423C193.916 24.9367 193.667 24.6883 193.362 24.6883Z" fill="white"/>
<path d="M188.492 21.5365C187.488 21.5365 186.67 20.7189 186.67 19.7142C186.67 18.7094 187.488 17.8919 188.492 17.8919C189.497 17.8919 190.315 18.7094 190.315 19.7142C190.315 20.7189 189.499 21.5365 188.492 21.5365ZM188.492 18.9119C188.049 18.9119 187.688 19.2729 187.688 19.7161C187.688 20.1593 188.049 20.5203 188.492 20.5203C188.936 20.5203 189.297 20.1593 189.297 19.7161C189.297 19.271 188.936 18.9119 188.492 18.9119Z" fill="white"/>
<path d="M187.05 4.43855C185.929 4.43855 185.018 3.52739 185.018 2.40612C185.018 1.28484 185.931 0.373688 187.05 0.373688C188.17 0.373688 189.083 1.28484 189.083 2.40612C189.083 3.52739 188.172 4.43855 187.05 4.43855ZM187.05 1.39372C186.493 1.39372 186.038 1.84835 186.038 2.40612C186.038 2.96389 186.493 3.41851 187.05 3.41851C187.608 3.41851 188.063 2.96389 188.063 2.40612C188.063 1.84835 187.61 1.39372 187.05 1.39372Z" fill="white"/>
<path d="M170.109 36.0386C169.104 36.0386 168.287 35.221 168.287 34.2163C168.287 33.2115 169.104 32.394 170.109 32.394C171.114 32.394 171.931 33.2115 171.931 34.2163C171.931 35.221 171.114 36.0386 170.109 36.0386ZM170.109 33.414C169.666 33.414 169.305 33.775 169.305 34.2182C169.305 34.6614 169.666 35.0224 170.109 35.0224C170.552 35.0224 170.913 34.6614 170.913 34.2182C170.911 33.7731 170.552 33.414 170.109 33.414Z" fill="white"/>
<path d="M190.993 5.56654L190.201 6.20834L192.706 9.30411L193.499 8.66231L190.993 5.56654Z" fill="white"/>
<path d="M172.967 29.062L172.166 29.6934L174.631 32.8214L175.432 32.19L172.967 29.062Z" fill="white"/>
<path d="M58.4896 40.7148C47.508 40.7148 39.2274 32.734 38.7957 21.7391L39.9227 21.6951C40.3276 32.0636 48.1364 39.5878 58.4896 39.5878C69.2573 39.5878 77.0718 31.7064 77.0718 20.8489C77.0718 9.99146 69.2573 2.11007 58.4896 2.11007C53.2251 2.11007 48.4478 4.05463 45.0419 7.58273L44.2301 6.79955C47.8518 3.04797 52.9157 0.983063 58.4896 0.983063C64.0176 0.983063 69.0548 3.01931 72.6688 6.71742C76.2351 10.3659 78.2007 15.3839 78.2007 20.8489C78.2007 26.3139 76.2371 31.332 72.6688 34.9804C69.0529 38.6785 64.0176 40.7148 58.4896 40.7148ZM60.0655 35.968L59.9547 34.8467C66.9173 34.159 71.7787 28.4037 71.7787 20.8489C71.7787 19.613 71.645 18.3943 71.3814 17.231L72.4816 16.9827C72.7644 18.2301 72.9076 19.5309 72.9076 20.8508C72.9076 29.0035 67.626 35.2211 60.0655 35.968ZM49.1507 32.6901C45.9225 29.8917 44.0716 25.5766 44.0716 20.8489C44.0716 16.721 45.4641 12.9179 47.9932 10.1385C50.6235 7.24654 54.3502 5.65345 58.4896 5.65345C62.245 5.65345 65.5955 6.92181 68.1761 9.32099L67.4082 10.1462C65.0396 7.94566 61.9547 6.78045 58.4877 6.78045C50.7878 6.78045 45.1967 12.6963 45.1967 20.8489C45.1967 25.25 46.9063 29.2556 49.8861 31.8382L49.1507 32.6901Z" fill="white"/>
<path d="M58.4896 37.3566C57.3779 37.3566 56.4744 36.4531 56.4744 35.3414C56.4744 34.2297 57.3779 33.3262 58.4896 33.3262C59.6013 33.3262 60.5048 34.2297 60.5048 35.3414C60.5048 36.4531 59.6013 37.3566 58.4896 37.3566ZM58.4896 34.4532C58.0006 34.4532 57.6014 34.8524 57.6014 35.3414C57.6014 35.8304 58.0006 36.2296 58.4896 36.2296C58.9786 36.2296 59.3778 35.8304 59.3778 35.3414C59.3778 34.8524 58.9786 34.4532 58.4896 34.4532Z" fill="white"/>
<path d="M68.9803 12.8969C67.8686 12.8969 66.9651 11.9934 66.9651 10.8816C66.9651 9.76991 67.8686 8.86639 68.9803 8.86639C70.092 8.86639 70.9956 9.76991 70.9956 10.8816C70.9956 11.9934 70.092 12.8969 68.9803 12.8969ZM68.9803 9.99149C68.4913 9.99149 68.0921 10.3907 68.0921 10.8797C68.0921 11.3687 68.4913 11.768 68.9803 11.768C69.4693 11.768 69.8686 11.3687 69.8686 10.8797C69.8686 10.3907 69.4693 9.99149 68.9803 9.99149Z" fill="white"/>
<path d="M39.342 22.1383C38.2303 22.1383 37.3268 21.2348 37.3268 20.1231C37.3268 19.0113 38.2303 18.1078 39.342 18.1078C40.4537 18.1078 41.3573 19.0113 41.3573 20.1231C41.3573 21.2348 40.4537 22.1383 39.342 22.1383ZM39.342 19.2329C38.853 19.2329 38.4538 19.6321 38.4538 20.1211C38.4538 20.6102 38.853 21.0094 39.342 21.0094C39.831 21.0094 40.2303 20.6102 40.2303 20.1211C40.2303 19.6321 39.8329 19.2329 39.342 19.2329Z" fill="white"/>
<path d="M50.6112 30.2736L47.5983 33.4865L48.4203 34.2574L51.4332 31.0445L50.6112 30.2736Z" fill="white"/>
<path d="M73.9138 16.1769L69.6058 17.0962L69.841 18.1984L74.149 17.2791L73.9138 16.1769Z" fill="white"/>
<path d="M43.2798 5.32626L42.5696 6.20126L45.9895 8.97721L46.6998 8.10221L43.2798 5.32626Z" fill="white"/>
<path d="M144.05 4.93897C142.96 4.93897 142.071 4.05074 142.071 2.96002C142.071 1.86931 142.96 0.981079 144.05 0.981079C145.141 0.981079 146.029 1.86931 146.029 2.96002C146.029 4.05074 145.141 4.93897 144.05 4.93897ZM144.05 2.08898C143.569 2.08898 143.179 2.48057 143.179 2.96002C143.179 3.43948 143.571 3.83106 144.05 3.83106C144.53 3.83106 144.921 3.43948 144.921 2.96002C144.921 2.48057 144.532 2.08898 144.05 2.08898Z" fill="white"/>
<path d="M130.935 38.0061C129.993 38.0061 129.227 37.2401 129.227 36.2984C129.227 35.3567 129.993 34.5907 130.935 34.5907C131.877 34.5907 132.643 35.3567 132.643 36.2984C132.643 37.2401 131.875 38.0061 130.935 38.0061ZM130.935 35.6986C130.605 35.6986 130.333 35.9679 130.333 36.3003C130.333 36.6308 130.603 36.902 130.935 36.902C131.267 36.902 131.537 36.6327 131.537 36.3003C131.535 35.9679 131.265 35.6986 130.935 35.6986Z" fill="white"/>
<path d="M158.793 40.3289C157.702 40.3289 156.814 39.4406 156.814 38.3499C156.814 37.2592 157.702 36.371 158.793 36.371C159.884 36.371 160.772 37.2592 160.772 38.3499C160.77 39.4425 159.884 40.3289 158.793 40.3289ZM158.793 37.4789C158.312 37.4789 157.922 37.8705 157.922 38.3499C157.922 38.8313 158.314 39.221 158.793 39.221C159.275 39.221 159.664 38.8294 159.664 38.3499C159.664 37.8705 159.275 37.4789 158.793 37.4789Z" fill="white"/>
<path d="M106.962 39.2898H101.507V38.1838H105.854V6.71936H113.191V7.82535H106.96V39.2898H106.962ZM102.074 25.8364H100.968V10.2475L98.546 7.82535H91.337V6.71936H99.0045L102.074 9.78901V25.8364ZM90.466 5.85787H89.36V2.13684H116.985V3.24283H90.466V5.85787Z" fill="white"/>
<path d="M89.9121 9.25034C88.8213 9.25034 87.9331 8.36211 87.9331 7.27139C87.9331 6.18068 88.8213 5.29245 89.9121 5.29245C91.0028 5.29245 91.891 6.18068 91.891 7.27139C91.891 8.36211 91.0028 9.25034 89.9121 9.25034ZM89.9121 6.40035C89.4307 6.40035 89.041 6.79194 89.041 7.27139C89.041 7.75276 89.4326 8.14244 89.9121 8.14244C90.3915 8.14244 90.7831 7.75085 90.7831 7.27139C90.785 6.79194 90.3934 6.40035 89.9121 6.40035Z" fill="white"/>
<path d="M118.017 4.39846C117.075 4.39846 116.309 3.63248 116.309 2.69076C116.309 1.74904 117.075 0.983063 118.017 0.983063C118.958 0.983063 119.724 1.74904 119.724 2.69076C119.724 3.63248 118.958 4.39846 118.017 4.39846ZM118.017 2.08906C117.686 2.08906 117.415 2.35839 117.415 2.69076C117.415 3.02313 117.684 3.29247 118.017 3.29247C118.349 3.29247 118.618 3.02313 118.618 2.69076C118.618 2.35839 118.347 2.08906 118.017 2.08906Z" fill="white"/>
<path d="M101.507 33.6337C100.416 33.6337 99.528 32.7455 99.528 31.6548C99.528 30.5641 100.416 29.6758 101.507 29.6758C102.598 29.6758 103.486 30.5641 103.486 31.6548C103.486 32.7455 102.598 33.6337 101.507 33.6337ZM101.507 30.7837C101.026 30.7837 100.636 31.1753 100.636 31.6548C100.636 32.1342 101.027 32.5258 101.507 32.5258C101.988 32.5258 102.378 32.1342 102.378 31.6548C102.378 31.1753 101.988 30.7837 101.507 30.7837Z" fill="white"/>
<path d="M113.745 5.11093H112.639V9.43175H113.745V5.11093Z" fill="white"/>
<path d="M103.669 25.2786H99.3464V26.3846H103.669V25.2786Z" fill="white"/>
<path d="M102.074 32.8965H100.968V39.2898H102.074V32.8965Z" fill="white"/>
<path d="M157.179 38.9249H154.709L150.86 29.5268H133.774V28.3807H151.63L155.479 37.7788H157.179V38.9249ZM124.177 38.9249L140.123 2.38699H142.595V3.5331H140.874L125.222 39.3967L124.177 38.9249ZM152.067 23.8498L143.964 4.60089L145.021 4.15582L153.124 23.4047L152.067 23.8498ZM147.64 24.3751L142.748 11.8099L141.336 11.8023L136.838 22.7227L135.775 22.2949L140.564 10.6523L143.533 10.6695L148.87 24.3751H147.64Z" fill="white"/>
<path d="M26.1274 38.3843H20.8267L11.8068 22.7476H6.75824V21.6588H12.4353L21.4551 37.2955H26.1274V38.3843ZM4.41636 38.3843H1.4021V3.76041H2.4909V37.2955H4.41636V38.3843ZM26.1504 37.2554L16.164 21.2061L17.0216 21.1106C22.4293 20.505 25.2583 16.209 25.2583 12.2798C25.2583 10.4957 24.8419 7.17963 22.0569 5.02685L22.7235 4.16536C25.0597 5.97048 26.3471 8.85294 26.3471 12.2798C26.3471 14.6694 25.4646 16.9827 23.8601 18.7935C22.3357 20.5127 20.3167 21.6339 17.9824 22.0695L27.0749 36.6804L26.1504 37.2554ZM13.0733 18.5375H9.42294L7.31983 16.4344L8.08963 15.6646L9.87374 17.4487H13.0733C17.9653 17.4487 20.1467 15.8557 20.1467 12.2798C20.1467 8.70395 17.9653 7.11086 13.0733 7.11086H6.75824V6.02206H13.0733C15.4725 6.02206 17.2738 6.39072 18.5822 7.14715C20.3415 8.16528 21.2355 9.89208 21.2355 12.2798C21.2355 14.6675 20.3434 16.3924 18.5822 17.4124C17.2738 18.1689 15.4725 18.5375 13.0733 18.5375Z" fill="white"/>
<path d="M27.0023 39.7864C25.9287 39.7864 25.0558 38.9134 25.0558 37.8399C25.0558 36.7664 25.9287 35.8934 27.0023 35.8934C28.0758 35.8934 28.9487 36.7664 28.9487 37.8399C28.9487 38.9134 28.0758 39.7864 27.0023 39.7864ZM27.0023 36.9803C26.5285 36.9803 26.1446 37.3643 26.1446 37.838C26.1446 38.3117 26.5285 38.6957 27.0023 38.6957C27.476 38.6957 27.8599 38.3117 27.8599 37.838C27.8599 37.3643 27.4741 36.9803 27.0023 36.9803Z" fill="white"/>
<path d="M21.0328 6.35254C19.5333 6.35254 18.3127 5.13194 18.3127 3.63245C18.3127 2.13296 19.5333 0.912354 21.0328 0.912354C22.5323 0.912354 23.7529 2.13296 23.7529 3.63245C23.7548 5.13194 22.5342 6.35254 21.0328 6.35254ZM21.0328 1.99924C20.1331 1.99924 19.4015 2.73084 19.4015 3.63054C19.4015 4.53023 20.1331 5.26183 21.0328 5.26183C21.9325 5.26183 22.6641 4.53023 22.6641 3.63054C22.6641 2.73084 21.9325 1.99924 21.0328 1.99924Z" fill="white"/>
<path d="M1.94647 4.30559C0.872951 4.30559 0 3.43073 0 2.35721C0 1.28369 0.872951 0.410736 1.94647 0.410736C3.01999 0.410736 3.89294 1.28369 3.89294 2.35721C3.89294 3.43073 3.01999 4.30559 1.94647 4.30559ZM1.94647 1.49954C1.47275 1.49954 1.0888 1.88348 1.0888 2.35721C1.0888 2.83093 1.47275 3.21488 1.94647 3.21488C2.4202 3.21488 2.80414 2.83093 2.80414 2.35721C2.80414 1.88348 2.4202 1.49954 1.94647 1.49954Z" fill="white"/>
<path d="M6.85757 16.7783C5.92159 16.7783 5.15942 16.0161 5.15942 15.0801C5.15942 14.1441 5.92159 13.382 6.85757 13.382C7.79356 13.382 8.55572 14.1441 8.55572 15.0801C8.55763 16.0161 7.79547 16.7783 6.85757 16.7783ZM6.85757 14.4708C6.52138 14.4708 6.24823 14.7439 6.24823 15.0801C6.24823 15.4163 6.52138 15.6895 6.85757 15.6895C7.19376 15.6895 7.46692 15.4163 7.46692 15.0801C7.46692 14.7439 7.19376 14.4708 6.85757 14.4708Z" fill="white"/>
<path d="M135.773 25.5479C134.837 25.5479 134.075 24.7857 134.075 23.8498C134.075 22.9138 134.837 22.1516 135.773 22.1516C136.709 22.1516 137.472 22.9138 137.472 23.8498C137.472 24.7857 136.711 25.5479 135.773 25.5479ZM135.773 23.2404C135.437 23.2404 135.164 23.5136 135.164 23.8498C135.164 24.186 135.437 24.4591 135.773 24.4591C136.11 24.4591 136.383 24.186 136.383 23.8498C136.383 23.5136 136.11 23.2404 135.773 23.2404Z" fill="white"/>
<path d="M7.30267 20.2262H6.21387V24.4801H7.30267V20.2262Z" fill="white"/>
<path d="M7.30267 29.863H6.21387V35.7808H7.30267V29.863Z" fill="white"/>
<path d="M7.30267 4.44049H6.21387V8.69446H7.30267V4.44049Z" fill="white"/>
<path d="M6.75824 27.8344C7.19949 27.8344 7.5586 28.1935 7.5586 28.6348C7.5586 29.076 7.19949 29.4351 6.75824 29.4351C6.31699 29.4351 5.95787 29.076 5.95787 28.6348C5.95787 28.1954 6.31699 27.8344 6.75824 27.8344ZM6.75824 26.6883C5.68281 26.6883 4.81177 27.5593 4.81177 28.6348C4.81177 29.7102 5.68281 30.5812 6.75824 30.5812C7.83367 30.5812 8.70471 29.7102 8.70471 28.6348C8.70471 27.5593 7.83367 26.6883 6.75824 26.6883Z" fill="white"/>
<path d="M6.7581 36.4359C7.53172 36.4359 8.16208 37.0663 8.16208 37.8399C8.16208 38.6135 7.53172 39.2439 6.7581 39.2439C5.98447 39.2439 5.35411 38.6135 5.35411 37.8399C5.35411 37.0644 5.98447 36.4359 6.7581 36.4359ZM6.7581 35.2898C5.35029 35.2898 4.20801 36.4321 4.20801 37.8399C4.20801 39.2477 5.35029 40.39 6.7581 40.39C8.1659 40.39 9.30818 39.2477 9.30818 37.8399C9.30818 36.4302 8.1659 35.2898 6.7581 35.2898Z" fill="white"/>
<path d="M134.669 28.3807L131.936 35.2115H130.614L133.365 28.3712L134.669 28.3807Z" fill="white"/>
</svg>
