<svg width="1354" height="649" viewBox="0 0 1354 649" fill="none" xmlns="http://www.w3.org/2000/svg">
<g clip-path="url(#clip0)">
<rect width="1354" height="649" fill="#151515"/>
<path d="M0 0H1356V649H0V0Z" fill="url(#paint0_radial)"/>
<path d="M784.296 68.4624C784.296 76.6384 777.777 83.2134 769.801 83.2134C761.825 83.2134 755.307 76.6384 755.307 68.4624C755.307 60.2864 761.825 53.7114 769.801 53.7114C777.777 53.7114 784.296 60.2864 784.296 68.4624Z" stroke="#FFDF00" stroke-width="4"/>
<path d="M896.387 299.596C896.387 310.116 887.997 318.592 877.712 318.592C867.428 318.592 859.038 310.116 859.038 299.596C859.038 289.075 867.428 280.6 877.712 280.6C887.997 280.6 896.387 289.075 896.387 299.596Z" stroke="#FFDF00" stroke-width="4"/>
<path d="M1079.41 487.268C1079.41 494.357 1073.76 500.05 1066.85 500.05C1059.95 500.05 1054.3 494.357 1054.3 487.268C1054.3 480.179 1059.95 474.486 1066.85 474.486C1073.76 474.486 1079.41 480.179 1079.41 487.268Z" stroke="#FFDF00" stroke-width="4"/>
<path d="M1276.8 75.2845C1276.8 87.2281 1267.28 96.8575 1255.59 96.8575C1243.91 96.8575 1234.38 87.2281 1234.38 75.2845C1234.38 63.3408 1243.91 53.7114 1255.59 53.7114C1267.28 53.7114 1276.8 63.3408 1276.8 75.2845Z" stroke="#F72630" stroke-width="4"/>
<path d="M1164.31 269.67C1164.31 279.179 1156.73 286.835 1147.44 286.835C1138.15 286.835 1130.57 279.179 1130.57 269.67C1130.57 260.161 1138.15 252.506 1147.44 252.506C1156.73 252.506 1164.31 260.161 1164.31 269.67Z" stroke="#F72630" stroke-width="4"/>
<path d="M1242.53 94.8671L1155.22 252.135L1158.59 254.062L1245.89 96.7945L1242.53 94.8671Z" fill="#F72630"/>
<path d="M1178.28 557.442C1178.28 563.738 1173.26 568.789 1167.14 568.789C1161.01 568.789 1155.99 563.738 1155.99 557.442C1155.99 551.146 1161.01 546.095 1167.14 546.095C1173.26 546.095 1178.28 551.146 1178.28 557.442Z" stroke="#F72630" stroke-width="4"/>
<path d="M1280.33 542.997C1280.33 552.885 1272.44 560.848 1262.78 560.848C1253.11 560.848 1245.23 552.885 1245.23 542.997C1245.23 533.109 1253.11 525.146 1262.78 525.146C1272.44 525.146 1280.33 533.109 1280.33 542.997Z" stroke="#F72630" stroke-width="4"/>
<path d="M1261.89 466.27C1261.89 476.001 1254.13 483.837 1244.62 483.837C1235.11 483.837 1227.35 476.001 1227.35 466.27C1227.35 456.539 1235.11 448.703 1244.62 448.703C1254.13 448.703 1261.89 456.539 1261.89 466.27Z" stroke="#F72630" stroke-width="4"/>
<path d="M1250.23 484.787L1246.49 485.785L1256.39 524.03L1260.12 523.032L1250.23 484.787Z" fill="#F72630"/>
<path d="M1243.41 545.575L1179.91 552.91L1180.35 556.809L1243.85 549.475L1243.41 545.575Z" fill="#F72630"/>
<path d="M344.733 544.812C344.733 553.494 337.811 560.479 329.337 560.479C320.863 560.479 313.941 553.494 313.941 544.812C313.941 536.13 320.863 529.145 329.337 529.145C337.811 529.145 344.733 536.13 344.733 544.812Z" stroke="#F72630" stroke-width="4"/>
<path d="M109.072 74.6827C109.072 86.294 99.8112 95.654 88.4524 95.654C77.0936 95.654 67.833 86.294 67.833 74.6827C67.833 63.0714 77.0936 53.7114 88.4524 53.7114C99.8112 53.7114 109.072 63.0714 109.072 74.6827Z" stroke="#F72630" stroke-width="4"/>
<path d="M587.041 211.317C587.041 219.219 580.742 225.571 573.036 225.571C565.33 225.571 559.031 219.219 559.031 211.317C559.031 203.416 565.33 197.063 573.036 197.063C580.742 197.063 587.041 203.416 587.041 211.317Z" stroke="#F72630" stroke-width="4"/>
<path d="M348.261 202.165C348.261 212.792 339.787 221.353 329.398 221.353C319.008 221.353 310.534 212.792 310.534 202.165C310.534 191.539 319.008 182.978 329.398 182.978C339.787 182.978 348.261 191.539 348.261 202.165Z" stroke="#F72630" stroke-width="4"/>
<path d="M292.313 244.896C292.313 256.056 283.412 265.051 272.497 265.051C261.582 265.051 252.681 256.056 252.681 244.896C252.681 233.735 261.582 224.741 272.497 224.741C283.412 224.741 292.313 233.735 292.313 244.896Z" stroke="#F72630" stroke-width="4"/>
<path d="M430.513 330.594C430.513 338.303 424.368 344.498 416.853 344.498C409.337 344.498 403.192 338.303 403.192 330.594C403.192 322.886 409.337 316.69 416.853 316.69C424.368 316.69 430.513 322.886 430.513 330.594Z" stroke="#F72630" stroke-width="4"/>
<path d="M509.937 523.113C509.937 533.333 501.787 541.564 491.799 541.564C481.811 541.564 473.661 533.333 473.661 523.113C473.661 512.894 481.811 504.663 491.799 504.663C501.787 504.663 509.937 512.894 509.937 523.113Z" stroke="#F72630" stroke-width="4"/>
<path d="M547.122 557.367C547.122 563.356 542.349 568.158 536.526 568.158C530.703 568.158 525.93 563.356 525.93 557.367C525.93 551.378 530.703 546.575 536.526 546.575C542.349 546.575 547.122 551.378 547.122 557.367Z" stroke="#F72630" stroke-width="4"/>
<path d="M652.5 554.267C652.5 562.316 646.082 568.789 638.23 568.789C630.378 568.789 623.961 562.316 623.961 554.267C623.961 546.217 630.378 539.744 638.23 539.744C646.082 539.744 652.5 546.217 652.5 554.267Z" stroke="#F72630" stroke-width="4"/>
<path d="M623.157 552.193L547.504 555.437L547.667 559.358L623.32 556.114L623.157 552.193Z" fill="#F72630"/>
<path d="M506.143 533.257L503.835 536.405L524.776 552.235L527.084 549.087L506.143 533.257Z" fill="#F72630"/>
<path d="M425.689 342.446L422.075 343.836L482.19 505.099L485.804 503.71L425.689 342.446Z" fill="#F72630"/>
<path d="M291.64 255.161L289.734 258.575L402.835 323.686L404.74 320.272L291.64 255.161Z" fill="#F72630"/>
<path d="M310.989 212.075L287.208 228.158L289.35 231.425L313.131 215.342L310.989 212.075Z" fill="#F72630"/>
<path d="M161.977 326.329C161.977 336.235 154.077 344.213 144.397 344.213C134.717 344.213 126.818 336.235 126.818 326.329C126.818 316.423 134.717 308.445 144.397 308.445C154.077 308.445 161.977 316.423 161.977 326.329Z" stroke="#26F7DE" stroke-width="4"/>
<path d="M938.083 549.172C938.083 559.693 929.693 568.168 919.408 568.168C909.124 568.168 900.734 559.693 900.734 549.172C900.734 538.652 909.124 530.177 919.408 530.177C929.693 530.177 938.083 538.652 938.083 549.172Z" stroke="#26F7DE" stroke-width="4"/>
<path d="M479.803 110.026C479.803 121.222 470.874 130.245 459.924 130.245C448.974 130.245 440.045 121.222 440.045 110.026C440.045 98.8303 448.974 89.8071 459.924 89.8071C470.874 89.8071 479.803 98.8303 479.803 110.026Z" stroke="#26F7DE" stroke-width="4"/>
<path d="M986.218 77.5235C986.218 89.5647 976.615 99.2732 964.833 99.2732C953.051 99.2732 943.447 89.5647 943.447 77.5235C943.447 65.4823 953.051 55.7739 964.833 55.7739C976.615 55.7739 986.218 65.4823 986.218 77.5235Z" stroke="#26F7DE" stroke-width="4"/>
<path d="M1281.25 241.475C1281.25 252.371 1272.56 261.151 1261.9 261.151C1251.24 261.151 1242.55 252.371 1242.55 241.475C1242.55 230.58 1251.24 221.799 1261.9 221.799C1272.56 221.799 1281.25 230.58 1281.25 241.475Z" stroke="#26F7DE" stroke-width="4"/>
<path d="M987.121 85.4786L985.26 88.918L1242.45 232.447L1244.31 229.007L987.121 85.4786Z" fill="#26F7DE"/>
<path d="M775.736 465.136C775.736 473.478 769.085 480.188 760.945 480.188C752.805 480.188 746.154 473.478 746.154 465.136C746.154 456.793 752.805 450.084 760.945 450.084C769.085 450.084 775.736 456.793 775.736 465.136Z" stroke="#26F7DE" stroke-width="4"/>
<path d="M1105.02 371.563C1105.02 377.972 1099.91 383.115 1093.67 383.115C1087.44 383.115 1082.33 377.972 1082.33 371.563C1082.33 365.153 1087.44 360.01 1093.67 360.01C1099.91 360.01 1105.02 365.153 1105.02 371.563Z" stroke="#26F7DE" stroke-width="4"/>
<path d="M1080.26 373.134L776.558 458.45L777.588 462.232L1081.29 376.916L1080.26 373.134Z" fill="#26F7DE"/>
<path d="M92.9552 556.115C92.9552 563.208 87.3023 568.904 80.3941 568.904C73.486 568.904 67.833 563.208 67.833 556.115C67.833 549.023 73.486 543.326 80.3941 543.326C87.3023 543.326 92.9552 549.023 92.9552 556.115Z" stroke="#26F7DE" stroke-width="4"/>
<path d="M266.051 499.557C266.051 507.852 259.437 514.524 251.344 514.524C243.251 514.524 236.638 507.852 236.638 499.557C236.638 491.262 243.251 484.59 251.344 484.59C259.437 484.59 266.051 491.262 266.051 499.557Z" stroke="#26F7DE" stroke-width="4"/>
<path d="M644.568 395.621C644.568 404.228 637.704 411.153 629.302 411.153C620.9 411.153 614.036 404.228 614.036 395.621C614.036 387.013 620.9 380.088 629.302 380.088C637.704 380.088 644.568 387.013 644.568 395.621Z" stroke="#26F7DE" stroke-width="4"/>
<path d="M791.036 217.213C791.036 227.452 782.744 235.75 772.519 235.75C762.294 235.75 754.001 227.452 754.001 217.213C754.001 206.973 762.294 198.675 772.519 198.675C782.744 198.675 791.036 206.973 791.036 217.213Z" stroke="#26F7DE" stroke-width="4"/>
<path d="M234.677 502.456L93.7361 550.082L94.9561 553.805L235.897 506.18L234.677 502.456Z" fill="#26F7DE"/>
<path d="M612.25 398.692L266.859 492.902L267.862 496.692L613.252 402.482L612.25 398.692Z" fill="#26F7DE"/>
<path d="M757.818 230.584L637.982 382.116L640.995 384.574L760.831 233.042L757.818 230.584Z" fill="#26F7DE"/>
</g>
<defs>
<radialGradient id="paint0_radial" cx="0" cy="0" r="1" gradientUnits="userSpaceOnUse" gradientTransform="translate(678 324.5) rotate(90) scale(324.5 678)">
<stop stop-color="#252525"/>
<stop offset="1" stop-color="#1B1B1B" stop-opacity="0"/>
</radialGradient>
<clipPath id="clip0">
<rect width="1354" height="649" fill="white"/>
</clipPath>
</defs>
</svg>
