<svg width="136" height="137" viewBox="0 0 136 137" fill="none" xmlns="http://www.w3.org/2000/svg">
<path d="M134.153 136.431H1.32702C0.594717 136.431 0 135.836 0 135.104V2.27819C0 1.54589 0.594717 0.951172 1.32702 0.951172H134.153C134.885 0.951172 135.48 1.54589 135.48 2.27819V135.104C135.48 135.836 134.885 136.431 134.153 136.431ZM133.847 2.58442H1.63325V134.798H133.847V2.58442Z" fill="white"/>
<path d="M93.275 108.096H81.6581L61.8926 73.8373H50.8327V71.4518H63.2707L83.0361 105.71H93.275V108.096ZM45.7044 108.096H39.1003V32.2338H41.4859V105.71H45.7044V108.096ZM93.3216 105.624L71.4414 70.4598L73.321 70.249C85.1687 68.922 91.3666 59.5108 91.3666 50.9008C91.3666 46.9907 90.4546 39.7254 84.3543 35.0098L85.8122 33.1214C90.9317 37.0758 93.7521 43.3914 93.7521 50.9008C93.7521 56.1378 91.8171 61.2062 88.3043 65.1717C84.9667 68.9398 80.5419 71.3963 75.4247 72.3483L95.3477 104.363L93.3216 105.624ZM64.6687 64.6125H56.6711L52.0643 60.0057L53.7508 58.3192L57.6586 62.227H64.6665C75.3847 62.227 80.1646 58.7342 80.1646 50.903C80.1646 43.0718 75.3847 39.579 64.6665 39.579H50.8305V37.1934H64.6665C69.9235 37.1934 73.8713 37.999 76.7384 39.6588C80.5951 41.8912 82.5502 45.6748 82.5502 50.903C82.5502 56.1312 80.5951 59.9147 76.7384 62.1471C73.8735 63.8048 69.9257 64.6125 64.6687 64.6125Z" fill="white"/>
<path d="M95.188 111.169C92.8357 111.169 90.9207 109.256 90.9207 106.902C90.9207 104.547 92.8335 102.634 95.188 102.634C97.5424 102.634 99.4553 104.547 99.4553 106.902C99.4553 109.256 97.5402 111.169 95.188 111.169ZM95.188 105.022C94.1517 105.022 93.3084 105.865 93.3084 106.902C93.3084 107.938 94.1517 108.781 95.188 108.781C96.2243 108.781 97.0675 107.938 97.0675 106.902C97.0675 105.865 96.2243 105.022 95.188 105.022Z" fill="white"/>
<path d="M82.1108 37.9145C78.8243 37.9145 76.1481 35.2405 76.1481 31.9518C76.1481 28.6654 78.8221 25.9891 82.1108 25.9891C85.3972 25.9891 88.0735 28.6631 88.0735 31.9518C88.0735 35.2405 85.3972 37.9145 82.1108 37.9145ZM82.1108 28.3769C80.1402 28.3769 78.5358 29.9813 78.5358 31.9518C78.5358 33.9224 80.1402 35.5268 82.1108 35.5268C84.0813 35.5268 85.6857 33.9224 85.6857 31.9518C85.6857 29.9813 84.0813 28.3769 82.1108 28.3769Z" fill="white"/>
<path d="M40.2921 33.4254C37.9399 33.4254 36.0248 31.5125 36.0248 29.1581C36.0248 26.8036 37.9376 24.8907 40.2921 24.8907C42.6466 24.8907 44.5594 26.8036 44.5594 29.1581C44.5594 31.5125 42.6443 33.4254 40.2921 33.4254ZM40.2921 27.2807C39.2558 27.2807 38.4125 28.124 38.4125 29.1603C38.4125 30.1966 39.2558 31.0398 40.2921 31.0398C41.3284 31.0398 42.1717 30.1966 42.1717 29.1603C42.1717 28.124 41.3284 27.2807 40.2921 27.2807Z" fill="white"/>
<path d="M51.0524 60.7579C48.9997 60.7579 47.3309 59.0891 47.3309 57.0365C47.3309 54.9838 48.9997 53.3151 51.0524 53.3151C53.105 53.3151 54.7738 54.9838 54.7738 57.0365C54.7738 59.0891 53.105 60.7579 51.0524 60.7579ZM51.0524 55.7006C50.3156 55.7006 49.7165 56.2997 49.7165 57.0365C49.7165 57.7732 50.3156 58.3724 51.0524 58.3724C51.7891 58.3724 52.3882 57.7732 52.3882 57.0365C52.3882 56.2997 51.7891 55.7006 51.0524 55.7006Z" fill="white"/>
<path d="M52.0266 68.3116H49.6411V77.6318H52.0266V68.3116Z" fill="white"/>
<path d="M52.0266 89.4264H49.6411V102.393H52.0266V89.4264Z" fill="white"/>
<path d="M52.0266 33.7227H49.6411V43.0428H52.0266V33.7227Z" fill="white"/>
<path d="M50.8327 84.7884C51.909 84.7884 52.7833 85.6627 52.7833 86.739C52.7833 87.8152 51.909 88.6896 50.8327 88.6896C49.7565 88.6896 48.8822 87.813 48.8822 86.739C48.8822 85.6627 49.7587 84.7884 50.8327 84.7884ZM50.8327 82.4739C48.4761 82.4739 46.5654 84.3845 46.5654 86.7412C46.5654 89.0979 48.4761 91.0085 50.8327 91.0085C53.1894 91.0085 55.1001 89.0979 55.1001 86.7412C55.1001 84.3823 53.1894 82.4739 50.8327 82.4739Z" fill="white"/>
<path d="M50.8328 103.631C52.6369 103.631 54.1037 105.098 54.1037 106.902C54.1037 108.706 52.6369 110.173 50.8328 110.173C49.0286 110.173 47.5618 108.706 47.5618 106.902C47.5618 105.098 49.0309 103.631 50.8328 103.631ZM50.8328 101.316C47.7482 101.316 45.2473 103.817 45.2473 106.902C45.2473 109.986 47.7482 112.487 50.8328 112.487C53.9173 112.487 56.4182 109.986 56.4182 106.902C56.4204 103.817 53.9195 101.316 50.8328 101.316Z" fill="white"/>
</svg>
