<svg width="28" height="30" viewBox="0 0 28 30" fill="none" xmlns="http://www.w3.org/2000/svg">
<path fill-rule="evenodd" clip-rule="evenodd" d="M13.3748 1.53158C10.4181 0.899153 7.18067 1.66878 4.8866 3.58155L4.88153 3.58577L4.87637 3.58991C2.08989 5.82148 0.757533 9.6278 1.59114 13.0342L1.5928 13.041L1.59432 13.0478C2.32188 16.3271 4.958 19.137 8.26545 20.1231L8.27425 20.1258L8.28297 20.1286C10.5884 20.884 13.1481 20.6627 15.4164 19.734L15.8672 19.5494L16.1861 19.9116C17.2025 21.0663 18.1966 22.2218 19.1879 23.374C20.5874 25.0006 21.9812 26.6205 23.4238 28.2222L23.443 28.2435L23.4602 28.2662C23.6481 28.5151 23.9194 28.6364 24.3303 28.6736C24.696 28.7068 25.083 28.6679 25.5151 28.6244C25.5671 28.6192 25.6198 28.6139 25.6731 28.6086C26.6742 28.1039 26.9804 26.6701 26.2465 25.8763L26.2365 25.8654L26.2269 25.854C24.8802 24.2595 23.5183 22.6953 22.1527 21.1269C21.1595 19.9861 20.1643 18.8431 19.1716 17.6845L18.8249 17.2799L19.1542 16.8616C21.0994 14.3912 21.7515 11.0237 20.7673 8.06702L20.7655 8.06162L20.7638 8.05619C19.748 4.81536 16.8135 2.20655 13.3862 1.53391L13.3805 1.53279L13.3748 1.53158ZM13.6567 0.246144C10.301 -0.46978 6.6374 0.396567 4.01868 2.5772C0.844773 5.1224 -0.669967 9.43388 0.281294 13.3333C1.11348 17.0716 4.09661 20.251 7.86416 21.3779C10.3661 22.1952 13.074 22.0046 15.4782 21.1241C16.3662 22.1374 17.251 23.1657 18.1381 24.1966C19.5449 25.8314 20.9574 27.4728 22.3966 29.0713C22.8898 29.7072 23.5771 29.9256 24.2059 29.9826C24.7166 30.0289 25.2618 29.9729 25.6925 29.9286C25.7726 29.9203 25.8488 29.9125 25.9201 29.9058L26.0282 29.8957L26.1275 29.8528C27.9743 29.0557 28.6529 26.5349 27.2553 25.0066C25.9107 23.4147 24.535 21.8346 23.1632 20.2589C22.2845 19.2495 21.4073 18.242 20.541 17.2344C22.4937 14.4836 23.1165 10.8812 22.0482 7.6657C20.8869 3.96798 17.5646 1.01535 13.6567 0.246144ZM18.0223 9.19544C19.1174 12.8088 16.4779 16.8406 12.6964 17.4956C9.17351 18.2658 5.3937 15.9261 4.60887 12.5057C3.60152 8.94387 6.17002 5.03953 9.86252 4.34026C13.359 3.51473 17.1765 5.80671 18.0223 9.19544ZM16.719 9.52061C16.0544 6.82248 12.9468 4.95638 10.1653 5.62122L10.1486 5.62522L10.1316 5.62838C7.17273 6.18036 5.10579 9.36181 5.90921 12.1691L5.9142 12.1865L5.91821 12.2042C6.53349 14.9245 9.60553 16.8321 12.4157 16.2099L12.4321 16.2062L12.4487 16.2034C15.4756 15.6874 17.6006 12.401 16.7286 9.55537L16.7233 9.53811L16.719 9.52061Z" fill="#A0A0A0"/>
</svg>
