<svg width="166" height="61" viewBox="0 0 166 61" fill="none" xmlns="http://www.w3.org/2000/svg">
<path d="M165.996 37.9556C165.996 40.6272 165.992 43.2989 166 45.9725C166.002 46.664 165.862 47.2192 165.097 47.4456C158.874 49.2875 152.584 49.9449 146.263 48.083C139.781 46.173 135.623 40.8317 134.969 33.9792C134.588 29.9968 135.039 26.1767 136.9 22.5951C139.503 17.5865 143.796 14.7986 149.157 13.6141C153.923 12.5599 158.702 12.7583 163.416 14.0771C164.799 14.4639 164.901 14.6804 164.539 16.0773C164.204 17.3701 163.846 18.6588 163.552 19.9616C163.35 20.8554 162.963 21.0739 162.064 20.7512C158.894 19.6128 155.613 19.3543 152.302 19.9114C146.795 20.8374 143.442 24.8318 143.348 30.4337C143.318 32.2836 143.424 34.1054 144.101 35.8551C145.636 39.8235 148.573 42.0001 152.742 42.4751C154.057 42.6255 155.411 42.5433 156.74 42.4651C157.937 42.395 158.187 42.0783 158.199 40.8978C158.215 39.2944 158.191 37.691 158.205 36.0876C158.213 35.2499 157.837 34.861 156.996 34.8711C155.963 34.8851 154.928 34.857 153.893 34.863C153.153 34.8671 152.784 34.5344 152.79 33.7747C152.802 32.4059 152.804 31.035 152.786 29.6661C152.776 28.8784 153.113 28.4976 153.921 28.5016C157.557 28.5116 161.194 28.5136 164.829 28.4996C165.696 28.4956 166.004 28.9165 165.998 29.7402C165.986 32.478 165.996 35.2178 165.996 37.9556Z" fill="white"/>
<path d="M72.4977 25.0102C72.4977 28.1809 72.4897 31.3536 72.5017 34.5243C72.5077 36.246 72.8119 37.9135 73.5346 39.4868C74.5595 41.7195 76.349 42.8619 78.7572 42.874C81.1613 42.884 83.093 41.95 84.1739 39.6371C85.0727 37.7131 85.2989 35.6607 85.3069 33.5823C85.333 27.4073 85.3149 21.2302 85.3169 15.0532C85.3169 13.3476 85.379 13.2854 87.0445 13.2814C88.6779 13.2774 90.3113 13.2694 91.9468 13.2854C93.1398 13.2974 93.318 13.4578 93.318 14.6022C93.322 21.2783 93.352 27.9564 93.292 34.6325C93.2699 37.0817 92.7795 39.4748 91.7826 41.7396C90.2353 45.253 87.625 47.5819 83.9457 48.6442C80.7449 49.5681 77.4921 49.6122 74.2472 48.8987C70.1536 47.9968 67.3752 45.5176 65.8178 41.6474C64.9991 39.6151 64.5306 37.4886 64.5166 35.304C64.4726 28.4274 64.5026 21.5489 64.4766 14.6724C64.4726 13.7103 64.7929 13.2534 65.8038 13.2734C67.6034 13.3115 69.4049 13.3075 71.2045 13.2754C72.1494 13.2574 72.5097 13.6562 72.5017 14.5942C72.4736 18.0655 72.4917 21.5389 72.4917 25.0102C72.4917 25.0102 72.4937 25.0102 72.4977 25.0102Z" fill="white"/>
<path d="M105.12 30.9949C105.12 25.6516 105.116 20.3103 105.12 14.967C105.122 13.3957 105.222 13.2855 106.742 13.2835C112.877 13.2775 119.015 13.2775 125.15 13.2835C126.621 13.2855 126.727 13.4017 126.735 14.8969C126.741 16.1315 126.745 17.3681 126.733 18.6027C126.721 19.8834 126.579 20.0297 125.27 20.0337C121.835 20.0438 118.4 20.0357 114.965 20.0398C113.187 20.0418 113.129 20.1039 113.127 21.9217C113.125 23.3247 113.123 24.7257 113.127 26.1286C113.133 27.8142 113.219 27.9064 114.865 27.9104C117.966 27.9164 121.068 27.9084 124.169 27.9164C125.638 27.9204 125.752 28.0427 125.76 29.5298C125.766 30.6321 125.766 31.7345 125.76 32.8348C125.752 34.3941 125.648 34.5063 124.125 34.5103C120.956 34.5163 117.789 34.5083 114.621 34.5184C113.278 34.5224 113.131 34.6707 113.127 36.0275C113.119 39.7334 113.127 43.4412 113.121 47.147C113.119 48.6202 112.997 48.7364 111.512 48.7424C109.845 48.7484 108.177 48.7544 106.51 48.7384C105.299 48.7264 105.122 48.556 105.12 47.3254C105.116 41.8799 105.122 36.4364 105.12 30.9949Z" fill="white"/>
<path d="M53.0966 13.2534C53.0966 15.0231 53.0766 16.7949 53.1046 18.5626C53.1166 19.3523 52.8163 19.8714 52.1277 20.2642C48.969 22.066 45.8242 23.8939 42.6814 25.7237C42.1009 26.0624 41.5644 26.0584 40.9879 25.7237C37.7551 23.8498 34.5182 21.9838 31.2774 20.1239C30.7269 19.8072 30.4847 19.3543 30.4867 18.7269C30.4927 14.987 30.4947 11.2451 30.4827 7.50522C30.4807 6.81977 30.7869 6.39687 31.3635 6.06617C34.5763 4.22428 37.7831 2.37036 40.9819 0.506423C41.5184 0.193763 41.9988 0.123614 42.5693 0.456318C45.7962 2.3403 49.033 4.20825 52.2779 6.06016C52.9184 6.42493 53.1066 6.95405 53.1006 7.64151C53.0886 9.51146 53.0966 11.3834 53.0966 13.2534Z" fill="white"/>
<path d="M51.267 50.1454C51.267 51.6145 51.255 53.0836 51.273 54.5507C51.281 55.2562 51.0088 55.7332 50.3822 56.09C47.89 57.5069 45.4038 58.94 42.9397 60.4051C42.167 60.864 41.5204 60.8961 40.7237 60.4151C38.3836 59.0001 36.0136 57.6372 33.6255 56.3044C32.8067 55.8474 32.4224 55.2862 32.4384 54.3182C32.4864 51.4822 32.4764 48.6442 32.4424 45.8082C32.4324 44.9364 32.7427 44.3972 33.5114 43.9663C35.9275 42.6175 38.3196 41.2225 40.6957 39.8055C41.5104 39.3185 42.197 39.3486 43.0097 39.8376C45.3798 41.2646 47.7819 42.6415 50.194 43.9984C50.9467 44.4213 51.309 44.9544 51.279 45.8383C51.231 47.2713 51.267 48.7083 51.267 50.1434C51.269 50.1454 51.269 50.1454 51.267 50.1454Z" fill="white"/>
<path d="M19.2548 33.8329C19.2528 35.302 19.2348 36.7711 19.2608 38.2402C19.2728 38.9557 18.9906 39.4267 18.372 39.7795C15.7677 41.2706 13.1714 42.7758 10.5812 44.295C10.0587 44.6017 9.60029 44.5836 9.08583 44.283C6.49555 42.7658 3.89927 41.2606 1.29498 39.7694C0.712464 39.4347 0.438223 38.9898 0.440225 38.3144C0.456239 35.308 0.45824 32.3037 0.440225 29.2993C0.436221 28.5778 0.740489 28.1168 1.35103 27.7681C3.9293 26.297 6.50156 24.8158 9.06382 23.3187C9.6183 22.994 10.0947 23.008 10.6472 23.3327C13.1774 24.8219 15.7117 26.299 18.2679 27.742C18.9986 28.1549 19.2908 28.698 19.2668 29.5258C19.2268 30.9608 19.2568 32.3979 19.2548 33.8329Z" fill="white"/>
<path d="M56.8959 32.7426C56.8959 33.877 56.8859 35.0134 56.8999 36.1478C56.9079 36.8172 56.6377 37.2721 56.0471 37.6048C54.1295 38.6851 52.2178 39.7774 50.3261 40.9038C49.6415 41.3107 49.045 41.2946 48.3684 40.8918C46.4767 39.7674 44.5691 38.6651 42.6474 37.5908C42.0268 37.2441 41.7045 36.8052 41.7085 36.0836C41.7246 33.8469 41.7225 31.6102 41.7085 29.3714C41.7045 28.6619 41.9908 28.1869 42.6133 27.8382C44.563 26.7459 46.5008 25.6315 48.4264 24.4991C49.033 24.1424 49.5775 24.0823 50.202 24.449C52.1577 25.5975 54.1275 26.7218 56.0972 27.8462C56.6437 28.1589 56.9039 28.6058 56.8959 29.2372C56.8859 30.4056 56.8959 31.5741 56.8959 32.7426Z" fill="white"/>
<path d="M11.6721 17.4864C11.6721 16.352 11.6841 15.2156 11.6661 14.0812C11.6561 13.4098 11.9203 12.9608 12.5149 12.6261C14.4906 11.5117 16.4503 10.3733 18.406 9.22291C18.9865 8.88219 19.509 8.87618 20.0915 9.2189C22.0452 10.3693 24.009 11.5057 25.9847 12.6201C26.5352 12.9307 26.8295 13.3376 26.8274 13.975C26.8214 16.3119 26.8214 18.6488 26.8254 20.9858C26.8254 21.579 26.5672 21.9919 26.0548 22.2865C24.001 23.465 21.9512 24.6515 19.9094 25.8481C19.457 26.1126 19.0506 26.1126 18.5982 25.8481C16.5544 24.6515 14.5066 23.463 12.4508 22.2865C11.8943 21.9679 11.6621 21.5149 11.6681 20.8896C11.6801 19.7552 11.6721 18.6208 11.6721 17.4864Z" fill="white"/>
<path d="M19.2468 49.015C19.3029 44.9223 18.7344 46.0387 22.0653 44.1046C25.5263 42.0943 24.2672 42.1144 27.6222 44.0384C31.2233 46.1048 30.6188 45.0245 30.6268 49.1332C30.6348 52.9473 31.1052 51.9431 27.9545 53.8211C27.2398 54.248 26.4932 54.6248 25.7986 55.0818C25.15 55.5087 24.5815 55.4345 23.9469 55.0497C22.7519 54.3242 21.5468 53.6087 20.3077 52.9613C19.523 52.5504 19.1948 51.9812 19.2428 51.1174C19.2768 50.4159 19.2468 49.7144 19.2468 49.015Z" fill="white"/>
</svg>
